<svg width="105" height="104" viewBox="0 0 105 104" fill="none" xmlns="http://www.w3.org/2000/svg">
<path d="M103.991 52.0002C103.991 40.5669 100.111 29.4653 92.9751 20.4776L76.7812 33.0866C81.0629 38.4793 83.3905 45.1402 83.3905 52.0002H103.991Z" fill="#6B6B6B" stroke="white"/>
<path d="M92.9846 20.4775C85.4573 10.9971 74.7811 4.46495 62.8514 2.04092C50.9218 -0.383111 38.5106 1.45781 27.8217 7.23682C17.1327 13.0158 8.85765 22.359 4.46569 33.6074C0.0737396 44.8557 -0.150872 57.2814 3.83172 68.6783C7.81431 80.0751 15.7464 89.7056 26.2196 95.8598C36.6929 102.014 49.0295 104.294 61.0391 102.294C73.0488 100.294 83.9543 94.1448 91.8193 84.9372C99.6843 75.7297 104 64.0599 104 52H83.4C83.4 59.236 80.8106 66.2378 76.0916 71.7623C71.3726 77.2869 64.8293 80.9766 57.6235 82.1764C50.4177 83.3761 43.0157 82.0083 36.7318 78.3158C30.4478 74.6233 25.6886 68.8451 23.299 62.007C20.9095 55.1689 21.0443 47.7134 23.6794 40.9644C26.3146 34.2154 31.2796 28.6095 37.693 25.1421C44.1064 21.6747 51.553 20.5701 58.7108 22.0245C65.8686 23.479 72.2744 27.3982 76.7907 33.0865L92.9846 20.4775Z" fill="#42D9AD" stroke="white"/>
</svg>
