<svg width="44" height="40" viewBox="0 0 44 40" fill="none" xmlns="http://www.w3.org/2000/svg">
<path d="M38.6654 0H5.33203C2.57061 0 0.332031 2.23858 0.332031 5V28.3333C0.332031 31.0948 2.57061 33.3333 5.33203 33.3333H38.6654C41.4268 33.3333 43.6654 31.0948 43.6654 28.3333V5C43.6654 2.23858 41.4268 0 38.6654 0Z" fill="white"/>
<path d="M28.668 36.6667H15.3346C14.8926 36.6667 14.4687 36.8423 14.1561 37.1548C13.8436 37.4674 13.668 37.8913 13.668 38.3334C13.668 38.7754 13.8436 39.1993 14.1561 39.5119C14.4687 39.8244 14.8926 40 15.3346 40H28.668C29.11 40 29.5339 39.8244 29.8465 39.5119C30.159 39.1993 30.3346 38.7754 30.3346 38.3334C30.3346 37.8913 30.159 37.4674 29.8465 37.1548C29.5339 36.8423 29.11 36.6667 28.668 36.6667Z" fill="white"/>
</svg>
