<svg width="44" height="43" viewBox="0 0 44 43" fill="none" xmlns="http://www.w3.org/2000/svg">
<path d="M19.4979 30C19.8957 30 20.2773 30.158 20.5586 30.4394C20.8399 30.7207 20.9979 31.1022 20.9979 31.5C20.9979 31.8978 20.8399 32.2794 20.5586 32.5607C20.2773 32.842 19.8957 33 19.4979 33C19.1 33 18.7185 32.842 18.4372 32.5607C18.1559 32.2794 17.9978 31.8978 17.9978 31.5C17.9978 31.1022 18.1559 30.7207 18.4372 30.4394C18.7185 30.158 19.1 30 19.4979 30ZM14.2476 28.5C14.6455 28.5 15.027 28.6581 15.3083 28.9394C15.5897 29.2207 15.7477 29.6022 15.7477 30C15.7477 30.3978 15.5897 30.7794 15.3083 31.0607C15.027 31.342 14.6455 31.5 14.2476 31.5C13.8498 31.5 13.4682 31.342 13.1869 31.0607C12.9056 30.7794 12.7476 30.3978 12.7476 30C12.7476 29.6022 12.9056 29.2207 13.1869 28.9394C13.4682 28.6581 13.8498 28.5 14.2476 28.5ZM24.7481 28.5C25.146 28.5 25.5275 28.6581 25.8088 28.9394C26.0902 29.2207 26.2482 29.6022 26.2482 30C26.2482 30.3978 26.0902 30.7794 25.8088 31.0607C25.5275 31.342 25.146 31.5 24.7481 31.5C24.3503 31.5 23.9687 31.342 23.6874 31.0607C23.4061 30.7794 23.2481 30.3978 23.2481 30C23.2481 29.6022 23.4061 29.2207 23.6874 28.9394C23.9687 28.6581 24.3503 28.5 24.7481 28.5ZM19.5009 9.01362C24.2531 9.01362 26.9502 12.1591 27.3417 15.9586H27.4618C28.1882 15.9576 28.9077 16.0997 29.5792 16.3768C30.2507 16.654 30.861 17.0606 31.3753 17.5737C31.8896 18.0867 32.2978 18.696 32.5766 19.3667C32.8553 20.0375 32.9992 20.7567 33 21.4831C32.999 22.2093 32.855 22.9283 32.5761 23.5989C32.2973 24.2695 31.8891 24.8786 31.3748 25.3915C30.8605 25.9044 30.2502 26.3109 29.5788 26.5879C28.9074 26.8649 28.1881 27.007 27.4618 27.006H11.5385C10.8122 27.007 10.0928 26.8649 9.42142 26.5879C8.75002 26.3109 8.13976 25.9044 7.62548 25.3915C7.11121 24.8786 6.70299 24.2695 6.42413 23.5989C6.14528 22.9283 6.00124 22.2093 6.00026 21.4831C6.00105 20.7567 6.14493 20.0375 6.4237 19.3667C6.70247 18.696 7.11066 18.0867 7.62495 17.5737C8.13925 17.0606 8.74957 16.654 9.42107 16.3768C10.0926 16.0997 10.8121 15.9576 11.5385 15.9586H11.6585C12.053 12.1336 14.7487 9.01362 19.5009 9.01362ZM6.54779 15.2461C6.6521 15.4973 6.66186 15.7778 6.57526 16.0357C6.48866 16.2935 6.31157 16.5113 6.07676 16.6486L5.94026 16.7161L4.54969 17.2921C4.28665 17.3993 3.99278 17.403 3.72709 17.3026C3.4614 17.2021 3.24355 17.0048 3.11728 16.7504C2.991 16.496 2.96565 16.2032 3.04631 15.9308C3.12698 15.6585 3.30768 15.4267 3.55215 15.2821L3.68865 15.2131L5.07922 14.6371C5.21573 14.5805 5.36205 14.5514 5.50981 14.5514C5.65758 14.5514 5.80389 14.5806 5.9404 14.6371C6.07692 14.6937 6.20095 14.7765 6.30542 14.881C6.4099 14.9855 6.49126 15.1096 6.54779 15.2461ZM16.2787 7.99663L16.0222 8.08363C13.3446 9.02862 11.4275 11.0911 10.5995 13.8181L10.4945 14.1931L10.406 14.5501L10.0969 14.6086C9.19948 14.797 8.34813 15.161 7.59183 15.6796C6.90431 14.4979 6.64749 13.1146 6.8651 11.7649C7.0827 10.4152 7.76128 9.18266 8.78535 8.27694C9.80943 7.37122 11.1157 6.84831 12.4819 6.7972C13.8481 6.7461 15.1898 7.16995 16.2787 7.99663ZM4.40869 8.04313L4.56619 8.09563L5.95526 8.67163C6.21576 8.78144 6.42538 8.98529 6.5424 9.24263C6.65941 9.49997 6.67525 9.79193 6.58676 10.0604C6.49826 10.3289 6.31193 10.5542 6.06483 10.6916C5.81773 10.8289 5.52798 10.8682 5.25323 10.8016L5.09422 10.7506L3.70515 10.1746C3.44396 10.0651 3.23366 9.86116 3.11626 9.60344C2.99886 9.34571 2.98298 9.05319 3.0718 8.78427C3.16063 8.51536 3.34761 8.28983 3.59543 8.15272C3.84324 8.01562 4.13366 7.97552 4.40869 8.04313ZM10.1315 3.56415L10.199 3.70065L10.775 5.08964C10.8837 5.35291 10.8886 5.64763 10.7885 5.91433C10.6885 6.18103 10.491 6.39985 10.2359 6.52663C9.98081 6.65341 9.68712 6.6787 9.41411 6.59741C9.14109 6.51612 8.90908 6.3343 8.76489 6.08864L8.69588 5.95064L8.11986 4.56165C8.01264 4.29861 8.0089 4.00476 8.10938 3.73909C8.20986 3.47341 8.40712 3.25557 8.66157 3.1293C8.91601 3.00303 9.20881 2.97769 9.48117 3.05834C9.75353 3.139 9.9868 3.3197 10.1315 3.56415ZM16.6613 3.08565C16.9106 3.18875 17.1146 3.37802 17.236 3.61894C17.3574 3.85987 17.3882 4.13641 17.3228 4.39815L17.2703 4.55565L16.6958 5.94464C16.5875 6.20755 16.3838 6.41974 16.1255 6.53854C15.8672 6.65734 15.5735 6.67394 15.3034 6.58501C15.0334 6.49607 14.807 6.3082 14.6699 6.05916C14.5327 5.81012 14.495 5.51839 14.5642 5.24264L14.6167 5.08364L15.1912 3.69465C15.2477 3.55813 15.3306 3.43409 15.435 3.32959C15.5395 3.2251 15.6636 3.14221 15.8001 3.08566C15.9366 3.02911 16.0829 3 16.2307 3C16.3784 3 16.5247 3.0291 16.6613 3.08565Z" fill="#01A9F2"/>
</svg>
