<svg width="35" height="34" viewBox="0 0 35 34" fill="none" xmlns="http://www.w3.org/2000/svg">
<path fill-rule="evenodd" clip-rule="evenodd" d="M13.4909 15.7167C12.7618 15.7167 12.1852 16.2833 12.1852 17C12.1852 17.7 12.7618 18.2833 13.4909 18.2833H23.6654V26.25C23.6654 30.3333 20.2908 33.6667 16.1193 33.6667H7.8611C3.70655 33.6667 0.332031 30.35 0.332031 26.2667V7.75C0.332031 3.65 3.7235 0.333336 7.87806 0.333336H16.1533C20.2908 0.333336 23.6654 3.65 23.6654 7.73334V15.7167H13.4909ZM29.7157 11.2337L34.5824 16.0837C34.8324 16.3337 34.9657 16.6503 34.9657 17.0003C34.9657 17.3337 34.8324 17.667 34.5824 17.9003L29.7157 22.7503C29.4657 23.0003 29.1324 23.1337 28.8157 23.1337C28.4824 23.1337 28.149 23.0003 27.899 22.7503C27.399 22.2503 27.399 21.4337 27.899 20.9337L30.5657 18.2837H23.6657V15.717H30.5657L27.899 13.067C27.399 12.567 27.399 11.7503 27.899 11.2503C28.399 10.7337 29.2157 10.7337 29.7157 11.2337Z" fill="white"/>
</svg>
