<svg width="41" height="42" viewBox="0 0 41 42" fill="none" xmlns="http://www.w3.org/2000/svg">
<path d="M23.607 2.17957L19.0586 4.95222L19.6832 6.03257L22.502 4.31402L21.6852 9.67968L22.1896 10.5492L26.9062 7.67238L26.2816 6.59203L23.2947 8.4082L24.1035 3.045L23.607 2.17957ZM11.7795 4.96699C8.98918 6.55718 6.66381 8.88155 5.04351 11.7001C3.42322 14.5186 2.56673 17.7291 2.5625 21C2.5625 25.8733 4.45234 30.5471 7.81627 33.9931C11.1802 37.4391 15.7427 39.375 20.5 39.375C24.3784 39.3729 28.1517 38.0832 31.2542 35.6992C34.3568 33.3151 36.6215 29.9652 37.7088 26.1516C36.155 27.8373 34.2821 29.1809 32.2046 30.1005C30.127 31.0201 27.8882 31.4963 25.625 31.5C21.2075 31.5 16.9709 29.7023 13.8473 26.5025C10.7236 23.3027 8.96875 18.9628 8.96875 14.4375C8.97155 11.0655 9.94963 7.76996 11.7795 4.96699ZM31.3586 9.23671L30.8061 10.5902L34.3375 12.0996L28.8682 15.0445L28.4277 16.1273L34.3295 18.6539L34.882 17.3004L31.1424 15.7008L36.6117 12.7559L37.0522 11.673L31.3586 9.23671ZM22.1496 14.4867L14.318 17.3578L14.9666 19.2199L19.8193 17.4398L16.9846 25.4707L17.5051 26.9555L25.625 23.9859L24.9764 22.1238L19.8354 24.0105L22.6701 15.9797L22.1496 14.4867Z" fill="#4D4D4D"/>
</svg>
