<svg width="41" height="40" viewBox="0 0 41 40" fill="none" xmlns="http://www.w3.org/2000/svg">
<g clip-path="url(#clip0_997_363)">
<path d="M32.2329 21.5667C32.2995 21.0667 32.3329 20.55 32.3329 20C32.3329 19.4667 32.2995 18.9333 32.2162 18.4333L35.5995 15.8C35.8995 15.5667 35.9829 15.1167 35.7995 14.7833L32.5995 9.25C32.3995 8.88333 31.9829 8.76667 31.6162 8.88333L27.6329 10.4833C26.7995 9.85 25.9162 9.31667 24.9329 8.91667L24.3329 4.68333C24.2662 4.28333 23.9329 4 23.5329 4H17.1329C16.7329 4 16.4162 4.28333 16.3495 4.68333L15.7495 8.91667C14.7662 9.31667 13.8662 9.86667 13.0495 10.4833L9.0662 8.88333C8.69953 8.75 8.28287 8.88333 8.08287 9.25L4.89953 14.7833C4.69953 15.1333 4.7662 15.5667 5.09953 15.8L8.48287 18.4333C8.39953 18.9333 8.33287 19.4833 8.33287 20C8.33287 20.5167 8.3662 21.0667 8.44953 21.5667L5.0662 24.2C4.7662 24.4333 4.68287 24.8833 4.8662 25.2167L8.0662 30.75C8.2662 31.1167 8.68287 31.2333 9.04953 31.1167L13.0329 29.5167C13.8662 30.15 14.7495 30.6833 15.7329 31.0833L16.3329 35.3167C16.4162 35.7167 16.7329 36 17.1329 36H23.5329C23.9329 36 24.2662 35.7167 24.3162 35.3167L24.9162 31.0833C25.8995 30.6833 26.7995 30.15 27.6162 29.5167L31.5995 31.1167C31.9662 31.25 32.3829 31.1167 32.5829 30.75L35.7829 25.2167C35.9829 24.85 35.8995 24.4333 35.5829 24.2L32.2329 21.5667ZM20.3329 26C17.0329 26 14.3329 23.3 14.3329 20C14.3329 16.7 17.0329 14 20.3329 14C23.6329 14 26.3329 16.7 26.3329 20C26.3329 23.3 23.6329 26 20.3329 26Z" fill="white"/>
</g>
<defs>
<clipPath id="clip0_997_363">
<rect width="40" height="40" fill="white" transform="translate(0.332031)"/>
</clipPath>
</defs>
</svg>
